<?xml version="1.0" standalone="no"?><!DOCTYPE svg PUBLIC "-//W3C//DTD SVG 1.1//EN" "http://www.w3.org/Graphics/SVG/1.1/DTD/svg11.dtd"><svg t="1518671391240" class="icon" style="" viewBox="0 0 1024 1024" version="1.1" xmlns="http://www.w3.org/2000/svg" p-id="3689" xmlns:xlink="http://www.w3.org/1999/xlink" width="128" height="128"><defs><style type="text/css"></style></defs><path d="M582.1 750.9l-140.3-0.7V587.3h140.3z" fill="#FFDDB8" p-id="3690"></path><path d="M582.1 647.6l-140.3 82.7v-143h140.3z" fill="#EBCCAA" p-id="3691"></path><path d="M512.4 203.4c-0.6 0-1.1-0.1-1.7-0.1-103 0-193.3 100.3-193.3 224.1s123.2 224.1 193.3 224.1c0.6 0 1.1 0 1.7-0.1v-448z" fill="#F5D4B1" p-id="3692"></path><path d="M512.4 203.4c0.6 0 1.1-0.1 1.7-0.1 103 0 193.3 100.3 193.3 224.1S584.2 651.5 514.1 651.5c-0.6 0-1.1 0-1.7-0.1v-448z" fill="#FFDDB8" p-id="3693"></path><path d="M295.8 364.2c-3.3-58.2-6.6-140.3 16.6-191.6 23.3-51.3 146.3-106.1 199.4-106.1s156.2 51.3 179.5 82.1C705 166.7 726 266 724.5 350.5c-1 59.4-10.3 82.3-19.9 99.2-4.8 8.5 6.6-109.5-99.7-201.9-16.6-10.3-32.1 6.4-53.2 10.3-35.3 6.5-66.5 6.8-93.1 6.8-31 0-88.1 39.8-103 78.7-26.4 68.7-19.9 119.8-19.9 119.8s-36.6-41-39.9-99.2z" fill="#634335" p-id="3694"></path><path d="M294.585525 430.047842a51.3 25.7 72.645 1 0 49.06001-15.33217 51.3 25.7 72.645 1 0-49.06001 15.33217Z" fill="#F5D4B1" p-id="3695"></path><path d="M512.1 720.1l-133.5 24s-85.5 37.6-109.5 75.3c-24 37.6-61.6 133.5-61.6 133.5H512V720.1z" fill="#333333" p-id="3696"></path><path d="M512.4 720.1l133.5 24s85.5 37.6 109.5 75.3c24 37.6 61.6 133.5 61.6 133.5H512.4V720.1z" fill="#555555" p-id="3697"></path><path d="M686.998021 464.501055a25.7 51.3 17.355 1 0 30.604682-97.929125 25.7 51.3 17.355 1 0-30.604682 97.929125Z" fill="#FFDDB8" p-id="3698"></path><path d="M632.9 735.3L565 952.6h-50.9V720.1z" fill="#FFFFFF" p-id="3699"></path><path d="M391.9 735.3l67.9 217.3h50.9V720.1z" fill="#E0ECFF" p-id="3700"></path><path d="M495.3 850.1l-56.9-126.6 71.8-3.4 75.3 3.4-58.2 126.6 10.2 102.7h-51.2z" fill="#7FB2FF" p-id="3701"></path><path d="M432.5 672l78.7 47.9-130.1 102.7V719.9zM589.9 672l-78.7 47.9 130 102.7V719.9z" fill="#FFFFFF" p-id="3702"></path></svg>