<?xml version="1.0" standalone="no"?><!DOCTYPE svg PUBLIC "-//W3C//DTD SVG 1.1//EN" "http://www.w3.org/Graphics/SVG/1.1/DTD/svg11.dtd"><svg t="1518671374020" class="icon" style="" viewBox="0 0 1024 1024" version="1.1" xmlns="http://www.w3.org/2000/svg" p-id="1003" xmlns:xlink="http://www.w3.org/1999/xlink" width="128" height="128"><defs><style type="text/css"></style></defs><path d="M426.666667 540.444444h170.666666v113.777778H426.666667z" fill="#FFFFFF" p-id="1004"></path><path d="M711.111111 553.955556H312.888889c-62.577778 0-113.777778-51.2-113.777778-113.777778v-64.711111c0-157.155556 127.288889-284.444444 284.444445-284.444445h56.888888c157.155556 0 284.444444 127.288889 284.444445 284.444445v64.711111c0 63.288889-51.2 113.777778-113.777778 113.777778z" fill="#FFC44F" p-id="1005"></path><path d="M874.666667 931.555556H149.333333c-7.822222 0-14.222222-6.4-14.222222-14.222223v-128c0-62.577778 51.2-113.777778 113.777778-113.777777h526.222222c62.577778 0 113.777778 51.2 113.777778 113.777777v128c0 7.822222-6.4 14.222222-14.222222 14.222223z" fill="#5CBAEA" p-id="1006"></path><path d="M724.622222 273.777778h-419.555555V369.777778c0 102.4 82.488889 184.888889 184.888889 184.888889h49.777777c102.4 0 184.888889-82.488889 184.888889-184.888889V273.777778z" fill="#FFFFFF" p-id="1007"></path><path d="M775.111111 647.111111H611.555556v-56.888889h99.555555c78.222222 0 142.222222-64 142.222222-142.222222V376.888889c0-172.8-140.088889-312.888889-312.888889-312.888889h-56.888888C310.755556 64 170.666667 204.088889 170.666667 376.888889v71.111111c0 78.222222 64 142.222222 142.222222 142.222222h99.555555v56.888889H248.888889c-78.222222 0-142.222222 64-142.222222 142.222222v128c0 23.466667 19.2 42.666667 42.666666 42.666667h725.333334c23.466667 0 42.666667-19.2 42.666666-42.666667v-128c0-78.222222-64-142.222222-142.222222-142.222222zM312.888889 533.333333c-46.933333 0-85.333333-38.4-85.333333-85.333333V376.888889c0-141.511111 114.488889-256 256-256h56.888888c141.511111 0 256 114.488889 256 256v71.111111c0 46.933333-38.4 85.333333-85.333333 85.333333h-53.333333c45.511111-40.533333 74.666667-99.555556 74.666666-164.977777V292.266667c0-30.577778-24.888889-56.177778-56.177777-56.177778H347.733333c-30.577778 0-56.177778 24.888889-56.177777 56.177778v76.088889C291.555556 433.777778 320.711111 492.8 366.222222 533.333333H312.888889z m35.555555-164.977777V292.977778h327.111112v74.666666c0 90.311111-73.244444 163.555556-163.555556 163.555556-90.311111 0.711111-163.555556-73.244444-163.555556-162.844444zM554.666667 590.222222v56.888889H469.333333v-56.888889h85.333334z m305.777777 312.888889H163.555556v-113.777778c0-46.933333 38.4-85.333333 85.333333-85.333333h526.222222c46.933333 0 85.333333 38.4 85.333333 85.333333v113.777778z" fill="#194F82" p-id="1008"></path><path d="M424.533333 348.444444m-28.444444 0a28.444444 28.444444 0 1 0 56.888889 0 28.444444 28.444444 0 1 0-56.888889 0Z" fill="#194F82" p-id="1009"></path><path d="M597.333333 348.444444m-28.444444 0a28.444444 28.444444 0 1 0 56.888889 0 28.444444 28.444444 0 1 0-56.888889 0Z" fill="#194F82" p-id="1010"></path><path d="M563.2 436.622222c3.555556-7.111111 0.711111-15.644444-6.4-19.2s-15.644444-0.711111-19.2 6.4C533.333333 434.488889 522.666667 440.888889 512 440.888889s-21.333333-6.4-25.6-16.355556c-3.555556-7.111111-12.088889-9.955556-19.2-6.4-7.111111 3.555556-9.955556 12.088889-6.4 19.2 9.244444 19.911111 29.866667 32.711111 51.2 32.711111 22.044444-0.711111 41.955556-13.511111 51.2-33.422222z" fill="#194F82" p-id="1011"></path></svg>