<?xml version="1.0" standalone="no"?><!DOCTYPE svg PUBLIC "-//W3C//DTD SVG 1.1//EN" "http://www.w3.org/Graphics/SVG/1.1/DTD/svg11.dtd"><svg t="1518671406069" class="icon" style="" viewBox="0 0 1024 1024" version="1.1" xmlns="http://www.w3.org/2000/svg" p-id="1035" xmlns:xlink="http://www.w3.org/1999/xlink" width="128" height="128"><defs><style type="text/css"></style></defs><path d="M268.7 878.7L510 953.1V66.5c-71.3 0.3-190.1 42.5-214 205.3-37.9 257.6-27.3 606.9-27.3 606.9z" fill="#462F25" p-id="1036"></path><path d="M751.3 878.7L510 953.1V66.5c71.3 0.3 190.1 42.5 214.1 205.3 37.8 257.6 27.2 606.9 27.2 606.9z" fill="#5C3E31" p-id="1037"></path><path d="M512.3 953.1H789s-13.8-190.7-202.7-220.4c-69.1-5-74-2-74-2v222.4z" fill="#515151" p-id="1038"></path><path d="M511.1 953.1H235.6S249.3 761.8 437.4 732c68.8-5 73.7-2 73.7-2v223.1z" fill="#333333" p-id="1039"></path><path d="M442 598.9h145.1v257.2H442V598.9z" fill="" p-id="1040"></path><path d="M442 598.9h145.1v257.2H442V598.9z" fill="#FFDDB8" p-id="1041"></path><path d="M509 952.9s31.6 0.2 46.5 0.2c6.2-9.8 78.8-202.1 78.2-205.2-0.3-1.9-95.3 18-95.3 18L509 797v155.9z" fill="#FFFFFF" p-id="1042"></path><path d="M511 953.1s-31.6 0.2-46.5 0.2c-6.2-9.8-78.8-201.9-78.2-204.9 0.3-1.9 97.5 17.5 97.5 17.5l27.2 31.6v155.6z" fill="#E0ECFF" p-id="1043"></path><path d="M587.1 693.7l78.4 25 37.3 94.9-165.1-46.2 49.4-73.7z" fill="#FFFFFF" p-id="1044"></path><path d="M442 594.4h145.1v45.1l-145.1 88V594.4z" fill="#E5C6A5" p-id="1045"></path><path d="M441.3 697.2l-78 24.9-37.1 94.7 164.3-46.2-49.2-73.4z" fill="#FFFFFF" p-id="1046"></path><path d="M306.5 367.2c-12.1 4.1-15.6 26.4-7.8 49.7 7.8 23.3 23.9 38.9 36 34.8s15.6-26.4 7.8-49.7c-7.7-23.3-23.9-38.9-36-34.8z" fill="#F5D4B1" p-id="1047"></path><path d="M720.1 368.2c12.1 4.1 15.6 26 7.8 49s-23.9 38.4-36 34.3-15.6-26-7.8-49 23.9-38.4 36-34.3z" fill="" p-id="1048"></path><path d="M720.1 368.2c12.1 4.1 15.6 26 7.8 49s-23.9 38.4-36 34.3-15.6-26-7.8-49 23.9-38.4 36-34.3z" fill="#FFDDB8" p-id="1049"></path><path d="M512.3 197.4c-107.7 0-186 100.2-186 223.7 0 41.5 9.3 79.9 25.6 113.2 32.2 65.7 135.3 108.6 160.3 109.8 0.1-102.4 0.1-174.1 0.1-446.7z" fill="#F5D4B1" p-id="1050"></path><path d="M511.3 197.4c107.7 0 186 100.2 186 223.7 0 41.5-9.3 79.9-25.6 113.2-32.3 65.7-135.4 108.5-160.4 109.8V197.4z" fill="#FFDDB8" p-id="1051"></path><path d="M580.3 190.6s-89.9 124.8-249.5 185c-35.5-61.9-27.2-109.5-27.2-133.1s48.5-176 204.1-176c29.7-1.1 85 87.4 72.6 124.1z" fill="#5C3E31" p-id="1052"></path></svg>