<?xml version="1.0" standalone="no"?><!DOCTYPE svg PUBLIC "-//W3C//DTD SVG 1.1//EN" "http://www.w3.org/Graphics/SVG/1.1/DTD/svg11.dtd"><svg t="1518671448974" class="icon" style="" viewBox="0 0 1024 1024" version="1.1" xmlns="http://www.w3.org/2000/svg" p-id="1210" xmlns:xlink="http://www.w3.org/1999/xlink" width="128" height="128"><defs><style type="text/css"></style></defs><path d="M90.1 935c5.8-67.5 35.1-130.3 83.8-179.1C228.7 701.2 301.2 671 378 671h109V498.2h50V671h109c76.8 0 149.3 30.2 204.1 84.9 48.8 48.8 78 111.6 83.8 179.1H90.1z" fill="#FEDCB7" p-id="1211"></path><path d="M512 523.2V696h134c35.4 0 69.9 7 102.4 20.8 31.4 13.4 59.7 32.5 84 56.8 24.3 24.3 43.4 52.6 56.8 84 7.2 17 12.6 34.5 16 52.4H118.7c3.5-17.9 8.8-35.4 16-52.4 13.4-31.4 32.5-59.7 56.8-84 24.3-24.3 52.6-43.4 84-56.8C308.1 703 342.6 696 378 696h134V523.2m50-50H462V646h-84C205.3 646 64 787.3 64 960h896c0-172.7-141.3-314-314-314h-84V473.2z" fill="#3A3644" p-id="1212"></path><path d="M90.1 935c2.2-25 7.6-49.5 16.2-73.1 11.1-30.4 27.1-58.6 47.7-83.9 37.2-45.7 87.5-79.1 143.3-95.5C334.4 745.2 417.5 786 512 786c94.5 0 177.6-40.8 214.8-103.4 55.8 16.4 106.1 49.8 143.3 95.5 20.6 25.3 36.6 53.5 47.7 83.9 8.6 23.6 14 48.1 16.2 73.1H90.1z" fill="#B6CDD0" p-id="1213"></path><path d="M736.8 712.3c44.1 16.4 83.7 44.6 113.8 81.6 18.8 23.1 33.5 48.9 43.6 76.6 4.7 12.9 8.4 26.1 11 39.5H118.8c2.6-13.4 6.3-26.6 11-39.5 10.1-27.8 24.8-53.5 43.6-76.6 30.2-37 69.7-65.2 113.8-81.6C332.7 772.7 417.4 811 512 811s179.3-38.3 224.8-98.7m-23.3-58.9C687.9 715.6 607.4 761 512 761s-175.9-45.4-201.5-107.6C170 684.5 64 810.5 64 960h896c0-149.5-106-275.5-246.5-306.6z" fill="#3A3644" p-id="1214"></path><path d="M737 713c-49 61-129.6 98.5-225 98.5-44.3 0-84.7-7.9-120.6-22.5-12.9 37.8-21.7 78.3-25.8 120.7l539.4 0.3c-8.5-44.5-41.5-148.5-168-197z" fill="#A6BBBE" p-id="1215"></path><path d="M960 311.4c0 6.3-0.4 12.5-1.1 18.6h-48c1.1-6 1.6-12.3 1.6-18.6 0-58-47-105-105-105s-105 47-105 105c0 6.4 0.6 12.6 1.6 18.6h-48c-0.7-6.1-1.1-12.3-1.1-18.6 0-84.2 68.3-152.5 152.5-152.5S960 227.2 960 311.4zM216.5 158.9C132.3 158.9 64 227.2 64 311.4c0 6.3 0.4 12.5 1.1 18.6h48c-1.1-6-1.6-12.3-1.6-18.6 0-58 47-105 105-105s105 47 105 105c0 6.4-0.6 12.6-1.6 18.6h48c0.7-6.1 1.1-12.3 1.1-18.6 0-84.2-68.3-152.5-152.5-152.5z" fill="#3A3644" p-id="1216"></path><path d="M512 609c-69.4 0-134.7-27-183.8-76.2C279 483.7 252 418.4 252 349s27-134.7 76.2-183.8C377.3 116 442.6 89 512 89s134.7 27 183.8 76.2C745 214.3 772 279.6 772 349s-27 134.7-76.2 183.8S581.4 609 512 609z" fill="#FEDCB7" p-id="1217"></path><path d="M512 114c31.7 0 62.5 6.2 91.5 18.4 28 11.8 53.1 28.8 74.7 50.4 21.6 21.6 38.5 46.7 50.4 74.7 12.2 28.9 18.4 59.7 18.4 91.5s-6.2 62.5-18.4 91.5c-11.8 28-28.8 53.1-50.4 74.7-21.6 21.6-46.7 38.5-74.7 50.4-29 12.2-59.8 18.4-91.5 18.4s-62.5-6.2-91.5-18.4c-28-11.8-53.1-28.8-74.7-50.4-21.6-21.6-38.5-46.7-50.4-74.7-12.2-29-18.4-59.8-18.4-91.5s6.2-62.5 18.4-91.5c11.8-28 28.8-53.1 50.4-74.7 21.6-21.6 46.7-38.5 74.7-50.4 29-12.2 59.8-18.4 91.5-18.4m0-50c-157.4 0-285 127.6-285 285s127.6 285 285 285 285-127.6 285-285S669.4 64 512 64z" fill="#3A3644" p-id="1218"></path><path d="M650.1 158.9C678.3 197.7 695 245.4 695 297c0 129.8-105.2 235-235 235-51.6 0-99.3-16.7-138.1-44.9 42.7 58.7 112 96.9 190.1 96.9 129.8 0 235-105.2 235-235 0-78.2-38.2-147.4-96.9-190.1z" fill="#FDBE83" p-id="1219"></path><path d="M629.5 425c-20.9 43.9-65.6 74.3-117.5 74.3s-96.6-30.4-117.5-74.3H362c22.6 60.9 81.3 104.3 150 104.3S639.4 485.9 662 425h-32.5z" fill="#3A3644" p-id="1220"></path><path d="M254.9 241.7c-30.3 0-55-24.7-55-55s24.7-55 55-55 55 24.7 55 55-24.7 55-55 55z" fill="#EE6677" p-id="1221"></path><path d="M254.9 141.7c24.8 0 45 20.2 45 45s-20.2 45-45 45-45-20.2-45-45 20.2-45 45-45m0-20c-35.9 0-65 29.1-65 65s29.1 65 65 65 65-29.1 65-65-29.1-65-65-65z" fill="#3A3644" p-id="1222"></path></svg>